{"title":"I Frankenstein 2014 CAM READNFO x264 AAC-AVeNGeRZ","uid":9538284,"size":677216132,"categoryP":"video","categoryS":"movies","magnet":"?xt=urn:btih:be96b8ca344d9de04068f9d46db7072b6e0869a5&amp;dn=I+Frankenstein+2014+CAM+READNFO+x264+AAC-AVeNGeRZ&amp;tr=udp%3A%2F%2Ftracker.openbittorrent.com%3A80&amp;tr=udp%3A%2F%2Fopen.demonii.com%3A1337&amp;tr=udp%3A%2F%2Ftracker.coppersurfer.tk%3A6969&amp;tr=udp%3A%2F%2Fexodus.desync.com%3A6969","seeders":4,"leechers":3,"uploader":"xxxlavalxxx","files":-1,"time":1390976537,"description":" &lt;a href=&quot;\nhttp://www.imdb.com/title/tt1418377/&quot; rel=&quot;nofollow&quot; target=&quot;_NEW&quot;&gt;\nhttp://www.imdb.com/title/tt1418377/&lt;/a&gt;\n\n\nFrankenstein's creature finds himself caught in an all-out, centuries old war between two immortal clans.\n\nDirector: Stuart Beattie\nWriters: Stuart Beattie (screenplay), Kevin Grevioux (screen story)\nStars: Aaron Eckhart, Bill Nighy, Miranda Otto\nGenres: Action | Fantasy | Sci-Fi\nCountry: USA | Australia\nLanguage: English\n\n\n\nSoURCE: VOSE :) Thnx\n\nGeneral\nComplete name                            : I Frankenstein 2014 CAM READNFO x264 AAC-AVeNGeRZ.mp4\nFormat                                   : MPEG-4\nFormat profile                           : Base Media\nCodec ID                                 : isom\nFile size                                : 621 MiB\nDuration                                 : 1h 24mn\nOverall bit rate mode                    : Variable\nOverall bit rate                         : 1 034 Kbps\nEncoded date                             : UTC 2014-01-27 17:37:54\nTagged date                              : UTC 2014-01-27 17:37:54\n\nVideo\nID                                       : 1\nFormat                                   : AVC\nFormat/Info                              : Advanced Video Codec\nFormat profile                           : &lt;a class=&quot;__cf_email__&quot; href=&quot;/cdn-cgi/l/email-protection&quot; data-cfemail=&quot;3971505e5179750d1708&quot;&gt;[email&amp;#160;protected]&lt;/a&gt;&lt;script cf-hash='f9e31' type=&quot;text/javascript&quot;&gt;\n/* &lt;![CDATA[ */!function(){try{var t=&quot;currentScript&quot;in document?document.currentScript:function(){for(var t=document.getElementsByTagName(&quot;script&quot;),e=t.length;e--;)if(t[e].getAttribute(&quot;cf-hash&quot;))return t[e]}();if(t&amp;&amp;t.previousSibling){var e,r,n,i,c=t.previousSibling,a=c.getAttribute(&quot;data-cfemail&quot;);if(a){for(e=&quot;&quot;,r=parseInt(a.substr(0,2),16),n=2;a.length-n;n+=2)i=parseInt(a.substr(n,2),16)^r,e+=String.fromCharCode(i);e=document.createTextNode(e),c.parentNode.replaceChild(e,c)}}}catch(u){}}();/* ]]&gt; */&lt;/script&gt;\nFormat settings, CABAC                   : Yes\nFormat settings, ReFrames                : 3 frames\nCodec ID                                 : avc1\nCodec ID/Info                            : Advanced Video Coding\nDuration                                 : 1h 24mn\nBit rate mode                            : Variable\nBit rate                                 : 902 Kbps\nMaximum bit rate                         : 40.0 Mbps\nWidth                                    : 704 pixels\nHeight                                   : 292 pixels\nDisplay aspect ratio                     : 2.40:1\nFrame rate mode                          : Constant\nFrame rate                               : 29.970 fps\nColor space                              : YUV\nChroma subsampling                       : 4:2:0\nBit depth                                : 8 bits\nScan type                                : Progressive\nBits/(Pixel*Frame)                       : 0.146\nStream size                              : 542 MiB (87%)\nWriting library                          : x264 core 140 r2377 1ca7bb9\n\nAudio\nID                                       : 2\nFormat                                   : AAC\nFormat/Info                              : Advanced Audio Codec\nFormat profile                           : LC\nCodec ID                                 : 40\nDuration                                 : 1h 24mn\nBit rate mode                            : Variable\nBit rate                                 : 128 Kbps\nMaximum bit rate                         : 142 Kbps\nChannel(s)                               : 2 channels\nChannel positions                        : Front: L R\nSampling rate                            : 44.1 KHz\nCompression mode                         : Lossy\nStream size                              : 76.6 MiB (12%)\nLanguage                                 : English\nEncoded date                             : UTC 2014-01-27 16:06:01\nTagged date                              : UTC 2014-01-27 17:38:14\n\n\n\nscreens\n &lt;a href=&quot;\nhttp://i.imgur.com/S3PjSm6.png&quot; rel=&quot;nofollow&quot; target=&quot;_NEW&quot;&gt;\nhttp://i.imgur.com/S3PjSm6.png&lt;/a&gt; &lt;a href=&quot;\nhttp://i.imgur.com/BsO4IpQ.png&quot; rel=&quot;nofollow&quot; target=&quot;_NEW&quot;&gt;\nhttp://i.imgur.com/BsO4IpQ.png&lt;/a&gt; &lt;a href=&quot;\nhttp://i.imgur.com/8azaxee.png&quot; rel=&quot;nofollow&quot; target=&quot;_NEW&quot;&gt;\nhttp://i.imgur.com/8azaxee.png&lt;/a&gt; &lt;a href=&quot;\nhttp://i.imgur.com/eYDQWMV.png&quot; rel=&quot;nofollow&quot; target=&quot;_NEW&quot;&gt;\nhttp://i.imgur.com/eYDQWMV.png&lt;/a&gt; &lt;a href=&quot;\nhttp://i.imgur.com/Y5Jafkj.png&quot; rel=&quot;nofollow&quot; target=&quot;_NEW&quot;&gt;\nhttp://i.imgur.com/Y5Jafkj.png&lt;/a&gt; &lt;a href=&quot;\nhttp://i.imgur.com/z2Xkuxg.png&quot; rel=&quot;nofollow&quot; target=&quot;_NEW&quot;&gt;\nhttp://i.imgur.com/z2Xkuxg.png&lt;/a&gt; &lt;a href=&quot;\nhttp://i.imgur.com/vFaS8F1.png&quot; rel=&quot;nofollow&quot; target=&quot;_NEW&quot;&gt;\nhttp://i.imgur.com/vFaS8F1.png&lt;/a&gt;","torrent":{"xt":"urn:btih:be96b8ca344d9de04068f9d46db7072b6e0869a5","amp;dn":"I+Frankenstein+2014+CAM+READNFO+x264+AAC-AVeNGeRZ","amp;tr":["udp%3A%2F%2Ftracker.openbittorrent.com%3A80","udp%3A%2F%2Fopen.demonii.com%3A1337","udp%3A%2F%2Ftracker.coppersurfer.tk%3A6969","udp%3A%2F%2Fexodus.desync.com%3A6969"],"infoHash":"be96b8ca344d9de04068f9d46db7072b6e0869a5","infoHashBuffer":{"type":"Buffer","data":[190,150,184,202,52,77,157,224,64,104,249,212,109,183,7,43,110,8,105,165]},"announce":[],"urlList":[]}}